<?xml version="1.0" encoding="UTF-8"?>
<svg version="1.1" xmlns="http://www.w3.org/2000/svg" width="48" height="48">
<path d="M0 0 C6.46065209 5.8601784 9.91571354 11.03202352 10.375 19.8125 C10.18698064 26.41296897 8.39982268 31.35427519 3.94140625 36.26953125 C-2.42724864 42.23007672 -7.67854711 44.54973029 -16.41796875 44.30078125 C-24.43660461 43.36668902 -29.39028804 39.35071641 -34.40234375 33.22265625 C-38.41996838 27.63334472 -38.77912245 21.68831093 -38 15 C-36.10458164 7.30383821 -31.3108476 2.53626831 -25 -2 C-17.04704775 -6.061082 -7.29635765 -4.91226951 0 0 Z " fill="#0003EB" transform="translate(38,4)"/>
<path d="M0 0 C-0.8125 1.9375 -0.8125 1.9375 -2 4 C-2.99 4.33 -3.98 4.66 -5 5 C-5 5.66 -5 6.32 -5 7 C-6.65 7.66 -8.3 8.32 -10 9 C-10.66 8.34 -11.32 7.68 -12 7 C-15.39417765 10.12621626 -17.6062718 12.56541027 -19 17 C-21.875 16.3125 -21.875 16.3125 -25 15 C-26.375 12.375 -26.375 12.375 -27 10 C-27.12375 10.5775 -27.2475 11.155 -27.375 11.75 C-28.00648824 14.02335767 -28.88858191 15.9253529 -30 18 C-29.05125 18.433125 -28.1025 18.86625 -27.125 19.3125 C-24 21 -24 21 -22 24 C-22.33 24.66 -22.66 25.32 -23 26 C-21.741875 26.103125 -20.48375 26.20625 -19.1875 26.3125 C-16.71676602 26.64105505 -15.14005593 26.92360585 -12.9375 28.125 C-11.37052163 31.25895675 -12.17505739 33.70022958 -13 37 C-15.233598 40.47448578 -19.29577541 41.53228837 -23 43 C-29.74197714 37.9107891 -34.08294241 33.06595386 -35.375 24.51953125 C-35.68143489 18.34295295 -34.46735464 13.15017743 -31 8 C-22.45900552 -1.41616279 -12.17417331 -5.12596771 0 0 Z " fill="#04E904" transform="translate(35,2)"/>
<path d="M0 0 C2.54771771 6.05082957 3.12746936 12.22239648 1.2421875 18.5390625 C-0.45189061 22.63419621 -1.93988952 25.82494081 -6 28 C-6.33 27.34 -6.66 26.68 -7 26 C-7.845625 25.505 -8.69125 25.01 -9.5625 24.5 C-10.366875 24.005 -11.17125 23.51 -12 23 C-12 22.34 -12 21.68 -12 21 C-12.99 21.33 -13.98 21.66 -15 22 C-17.45823172 18.31265242 -18.01242616 15.30300029 -19 11 C-15.81237635 8.87491756 -13.73487777 8.4979837 -10 8 C-9.67 6.35 -9.34 4.7 -9 3 C-8.01 3 -7.02 3 -6 3 C-6.33 2.34 -6.66 1.68 -7 1 C-4.50935112 0.31292445 -2.62113708 0 0 0 Z " fill="#005600" transform="translate(46,13)"/>
<path d="M0 0 C0.9075 0.103125 1.815 0.20625 2.75 0.3125 C3.08 0.9725 3.41 1.6325 3.75 2.3125 C3.42 2.9725 3.09 3.6325 2.75 4.3125 C4.6371875 4.4671875 4.6371875 4.4671875 6.5625 4.625 C9.03323398 4.95355505 10.60994407 5.23610585 12.8125 6.4375 C14.37947837 9.57145675 13.57494261 12.01272958 12.75 15.3125 C10.516402 18.78698578 6.45422459 19.84478837 2.75 21.3125 C-6.29333284 14.05205701 -6.29333284 14.05205701 -8.25 8.3125 C-6.69242955 3.63978866 -5.16250919 0.49639511 0 0 Z " fill="#00C200" transform="translate(9.25,23.6875)"/>
<path d="M0 0 C4.50884026 2.31883213 6.93906776 5.06451569 10 9 C8 11 8 11 5 12 C5 12.99 5 13.98 5 15 C4.01 14.01 3.02 13.02 2 12 C0.68 13.65 -0.64 15.3 -2 17 C-3.32 16.67 -4.64 16.34 -6 16 C-5.45276317 12.62537285 -4.9451 10.91765 -3 8 C-5.62901288 9.52206009 -7.84365964 10.84365964 -10 13 C-9.34 13.66 -8.68 14.32 -8 15 C-8.375 17.125 -8.375 17.125 -9 19 C-10.32 18.67 -11.64 18.34 -13 18 C-13.103125 17.401875 -13.20625 16.80375 -13.3125 16.1875 C-14.08876455 13.71756736 -15.07088921 12.67748765 -17 11 C-15.95125002 8.37812506 -15.35068687 7.20628639 -12.875 5.75 C-12.25625 5.5025 -11.6375 5.255 -11 5 C-10.34 5.66 -9.68 6.32 -9 7 C-6.89179203 6.6814823 -6.89179203 6.6814823 -5 6 C-5 5.34 -5 4.68 -5 4 C-3.37373596 2.61767557 -1.7074998 1.28062485 0 0 Z " fill="#0008BB" transform="translate(35,3)"/>
<path d="M0 0 C0.66 0.99 1.32 1.98 2 3 C4.05003955 4.19232613 4.05003955 4.19232613 6 5 C5.9375 6.75 5.9375 6.75 5 9 C-1.2966934 13.64563241 -7.32923417 14.51138439 -15 14 C-18.625 13 -18.625 13 -21 12 C-21 11.34 -21 10.68 -21 10 C-20.05125 9.54625 -19.1025 9.0925 -18.125 8.625 C-14.50631975 6.74328627 -13.26008556 5.39012834 -11 2 C-10.01 2.66 -9.02 3.32 -8 4 C-7.4225 3.34 -6.845 2.68 -6.25 2 C-4 0 -4 0 0 0 Z " fill="#000669" transform="translate(34,34)"/>
<path d="M0 0 C0 0.99 0 1.98 0 3 C-0.804375 3.12375 -1.60875 3.2475 -2.4375 3.375 C-3.283125 3.58125 -4.12875 3.7875 -5 4 C-5.65012018 5.30024036 -6.27667106 6.61262879 -6.875 7.9375 C-8.01836272 10.03366499 -9.24277162 11.40251965 -11 13 C-11.66 12.67 -12.32 12.34 -13 12 C-13.309375 12.969375 -13.61875 13.93875 -13.9375 14.9375 C-15 18 -15 18 -16 19 C-14.02 19.99 -12.04 20.98 -10 22 C-12 24 -12 24 -14 24.375 C-16.20265017 24.82123176 -16.20265017 24.82123176 -17.25 27.0625 C-17.4975 27.701875 -17.745 28.34125 -18 29 C-18.99 28.67 -19.98 28.34 -21 28 C-21.53604898 20.86757051 -21.08989682 15.03746673 -17 9 C-11.80441359 3.46679425 -7.82682228 -0.21153574 0 0 Z " fill="#A6E5A6" transform="translate(21,1)"/>
<path d="M0 0 C-0.70426401 3.13651598 -1.73406167 6.02092247 -2.9375 9 C-3.27652344 9.845625 -3.61554687 10.69125 -3.96484375 11.5625 C-6.564919 17.68494135 -6.564919 17.68494135 -8.8125 19.3125 C-11.54191176 20.17031512 -13.27678692 19.75644808 -16 19 C-16.66 16.36 -17.32 13.72 -18 11 C-14.81237635 8.87491756 -12.73487777 8.4979837 -9 8 C-8.67 6.35 -8.34 4.7 -8 3 C-7.01 3 -6.02 3 -5 3 C-5.33 2.34 -5.66 1.68 -6 1 C-3.92446352 0.4465236 -2.15634036 0 0 0 Z " fill="#00CE00" transform="translate(45,13)"/>
<path d="M0 0 C3.77952756 1.51181102 3.77952756 1.51181102 4.875 3.9375 C6.50999554 6.93499182 8.98661403 7.52405585 12 9 C13.875 11.1875 13.875 11.1875 15 13 C14.34 14.32 13.68 15.64 13 17 C12.21625 16.814375 11.4325 16.62875 10.625 16.4375 C8.02910225 15.74037734 8.02910225 15.74037734 6 17 C5.979375 16.4225 5.95875 15.845 5.9375 15.25 C4.4233745 11.61609879 1.44043825 10.75149584 -2 9 C-1.34 8.67 -0.68 8.34 0 8 C1.08759087 3.90607154 1.08759087 3.90607154 0 0 Z " fill="#0077A4" transform="translate(6,11)"/>
<path d="M0 0 C1.32 0.66 2.64 1.32 4 2 C3.3980344 8.38083538 3.3980344 8.38083538 1.875 10.75 C-0.92400129 12.61600086 -3.87308347 13.76103307 -7 15 C-9.64 12.69 -12.28 10.38 -15 8 C-14.67 7.34 -14.34 6.68 -14 6 C-13.34 6.556875 -12.68 7.11375 -12 7.6875 C-8.69757065 9.13231284 -8.04383613 9.09330483 -4.75 8.0625 C-2.66767749 7.25411894 -2.66767749 7.25411894 -1 6 C0.14031566 2.92202417 0.14031566 2.92202417 0 0 Z " fill="#006100" transform="translate(19,30)"/>
<path d="M0 0 C0.928125 0.0825 1.85625 0.165 2.8125 0.25 C3.1425 0.91 3.4725 1.57 3.8125 2.25 C3.4825 2.91 3.1525 3.57 2.8125 4.25 C3.4725 4.25 4.1325 4.25 4.8125 4.25 C4.8125 4.91 4.8125 5.57 4.8125 6.25 C4.19375 6.53875 3.575 6.8275 2.9375 7.125 C0.67924235 8.18720042 0.67924235 8.18720042 -1.1875 10.25 C-3.17571313 10.64764263 -5.17694339 10.98775349 -7.1875 11.25 C-7.5175 9.27 -7.8475 7.29 -8.1875 5.25 C-7.5275 4.92 -6.8675 4.59 -6.1875 4.25 C-5.775 3.569375 -5.3625 2.88875 -4.9375 2.1875 C-3.1875 0.25 -3.1875 0.25 0 0 Z " fill="#11F311" transform="translate(9.1875,23.75)"/>
<path d="M0 0 C0.99 0 1.98 0 3 0 C2.1875 1.9375 2.1875 1.9375 1 4 C0.01 4.33 -0.98 4.66 -2 5 C-2 5.66 -2 6.32 -2 7 C-3.65 7.66 -5.3 8.32 -7 9 C-7.66 8.34 -8.32 7.68 -9 7 C-12.39417765 10.12621626 -14.6062718 12.56541027 -16 17 C-17.98 16.34 -19.96 15.68 -22 15 C-21.67 14.34 -21.34 13.68 -21 13 C-20.360625 12.87625 -19.72125 12.7525 -19.0625 12.625 C-18.381875 12.41875 -17.70125 12.2125 -17 12 C-16.29848848 10.6846659 -15.63474075 9.34882408 -15 8 C-11.859527 4.73390808 -8.33163341 4.31202128 -4.0234375 3.625 C-1.62162771 3.11633442 -1.62162771 3.11633442 0 0 Z " fill="#008009" transform="translate(32,2)"/>
<path d="M0 0 C1.32 1.32 2.64 2.64 4 4 C3.34 5.32 2.68 6.64 2 8 C2.66 8.66 3.32 9.32 4 10 C3.625 12.125 3.625 12.125 3 14 C1.68 13.67 0.36 13.34 -1 13 C-1.103125 12.401875 -1.20625 11.80375 -1.3125 11.1875 C-2.08876455 8.71756736 -3.07088921 7.67748765 -5 6 C-3.63016497 2.83884224 -3.0109362 2.0072908 0 0 Z " fill="#003EC0" transform="translate(23,8)"/>
<path d="M0 0 C0.66 0.66 1.32 1.32 2 2 C2.99 1.67 3.98 1.34 5 1 C8.1875 2.4375 8.1875 2.4375 11 4 C9 6 9 6 7 6.375 C4.79734983 6.82123176 4.79734983 6.82123176 3.75 9.0625 C3.5025 9.701875 3.255 10.34125 3 11 C2.01 10.67 1.02 10.34 0 10 C0 6.7 0 3.4 0 0 Z " fill="#80D5A2" transform="translate(0,19)"/>
<path d="M0 0 C0.66 0.33 1.32 0.66 2 1 C1.25 7.75 1.25 7.75 -1 10 C-3.125 9.625 -3.125 9.625 -5 9 C-4.5206753 4.68607774 -3.2542015 2.83430453 0 0 Z " fill="#00CA00" transform="translate(34,10)"/>
<path d="M0 0 C0 0.99 0 1.98 0 3 C-0.804375 3.12375 -1.60875 3.2475 -2.4375 3.375 C-3.7059375 3.684375 -3.7059375 3.684375 -5 4 C-5.33 4.66 -5.66 5.32 -6 6 C-6.598125 5.773125 -7.19625 5.54625 -7.8125 5.3125 C-8.8953125 5.1578125 -8.8953125 5.1578125 -10 5 C-11.77190909 6.35444301 -11.77190909 6.35444301 -13 8 C-13.66 7.67 -14.32 7.34 -15 7 C-13.90081184 6.01524786 -12.7954398 5.03739527 -11.6875 4.0625 C-11.07261719 3.51722656 -10.45773438 2.97195312 -9.82421875 2.41015625 C-6.64423359 -0.04803356 -3.87457537 -0.10471825 0 0 Z " fill="#7FC27F" transform="translate(21,1)"/>
<path d="M0 0 C0.99 0.99 1.98 1.98 3 3 C2.07347299 4.17539996 1.13336613 5.34010577 0.1875 6.5 C-0.33457031 7.1496875 -0.85664062 7.799375 -1.39453125 8.46875 C-3 10 -3 10 -6 10 C-6.33 9.01 -6.66 8.02 -7 7 C-4 5 -4 5 -1 5 C-0.67 3.35 -0.34 1.7 0 0 Z " fill="#3CB53C" transform="translate(37,16)"/>
<path d="M0 0 C0.99 0.66 1.98 1.32 3 2 C2.07506212 5.78383679 1.60628829 7.56693694 -1.625 9.875 C-2.40875 10.24625 -3.1925 10.6175 -4 11 C-4 9.02 -4 7.04 -4 5 C-3.34 5 -2.68 5 -2 5 C-1.34 3.35 -0.68 1.7 0 0 Z " fill="#BFEFEF" transform="translate(5,11)"/>
<path d="M0 0 C4 4.625 4 4.625 4 8 C3.01 9.485 3.01 9.485 2 11 C0 10 0 10 -0.703125 8.22265625 C-0.88359375 7.50980469 -1.0640625 6.79695313 -1.25 6.0625 C-1.44078125 5.35222656 -1.6315625 4.64195313 -1.828125 3.91015625 C-1.88484375 3.27980469 -1.9415625 2.64945313 -2 2 C-1.34 1.34 -0.68 0.68 0 0 Z " fill="#1DCB1D" transform="translate(29,22)"/>
<path d="M0 0 C1.32 0.66 2.64 1.32 4 2 C4 4 4 6 4 8 C2.0625 7.25 2.0625 7.25 0 6 C-0.8125 4 -0.8125 4 -1 2 C-0.67 1.34 -0.34 0.68 0 0 Z " fill="#0034CA" transform="translate(17,14)"/>
<path d="M0 0 C1.65 1.65 3.3 3.3 5 5 C3 7 3 7 0.375 7.125 C-0.40875 7.08375 -1.1925 7.0425 -2 7 C-1.125 1.125 -1.125 1.125 0 0 Z " fill="#00085C" transform="translate(40,7)"/>
<path d="M0 0 C0.99 0.33 1.98 0.66 3 1 C-1.625 5.875 -1.625 5.875 -5 7 C-5 5.68 -5 4.36 -5 3 C-4.01 3 -3.02 3 -2 3 C-2 2.34 -2 1.68 -2 1 C-1.34 0.67 -0.68 0.34 0 0 Z " fill="#0044BA" transform="translate(32,6)"/>
<path d="M0 0 C1.32 0.66 2.64 1.32 4 2 C4 3.32 4 4.64 4 6 C2.35 6.33 0.7 6.66 -1 7 C-0.67 4.69 -0.34 2.38 0 0 Z " fill="#00BD00" transform="translate(33,26)"/>
<path d="M0 0 C-0.62759865 2.92879371 -1.58622659 5.36095629 -3 8 C-4.5 6.6875 -4.5 6.6875 -6 5 C-6 4.01 -6 3.02 -6 2 C-2.25 0 -2.25 0 0 0 Z " fill="#16C616" transform="translate(45,13)"/>
<path d="M0 0 C0.33 0 0.66 0 1 0 C0.75 3.375 0.75 3.375 0 7 C-2.0625 8.4375 -2.0625 8.4375 -4 9 C-3.35499066 5.51694958 -1.95865224 2.93797836 0 0 Z " fill="#005500" transform="translate(35,11)"/>
<path d="M0 0 C0 0.99 0 1.98 0 3 C-2.3125 3.6875 -2.3125 3.6875 -5 4 C-6.8125 2.5625 -6.8125 2.5625 -8 1 C-5.07175348 0.02391783 -3.04386724 -0.08226668 0 0 Z " fill="#7FD47F" transform="translate(21,1)"/>
<path d="M0 0 C2.31 1.98 4.62 3.96 7 6 C6.67 6.66 6.34 7.32 6 8 C3.69 6.02 1.38 4.04 -1 2 C-0.67 1.34 -0.34 0.68 0 0 Z " fill="#00AC00" transform="translate(10,30)"/>
<path d="M0 0 C4.52346473 2.26173236 5.05828666 3.53405933 7 8 C6.01 8 5.02 8 4 8 C2.68 5.36 1.36 2.72 0 0 Z " fill="#283CB5" transform="translate(34,9)"/>
<path d="M0 0 C-1.32 1.32 -2.64 2.64 -4 4 C-4.66 2.68 -5.32 1.36 -6 0 C-3.50907189 -1.24546405 -2.58919267 -0.7767578 0 0 Z " fill="#60CA60" transform="translate(36,23)"/>
<path d="M0 0 C0.99 0.33 1.98 0.66 3 1 C2.67 2.32 2.34 3.64 2 5 C0.68 4.67 -0.64 4.34 -2 4 C-1.34 2.68 -0.68 1.36 0 0 Z " fill="#008E00" transform="translate(24,17)"/>
</svg>
